<svg xmlns="http://www.w3.org/2000/svg" viewBox="0 0 900 600">
  <!-- Background with subtle gradient -->
  <defs>
    <linearGradient id="bg-gradient" x1="0%" y1="0%" x2="100%" y2="100%">
      <stop offset="0%" style="stop-color:#f8f9fa;stop-opacity:1" />
      <stop offset="100%" style="stop-color:#e9ecef;stop-opacity:1" />
    </linearGradient>
    
    <!-- Glossy effect for boxes -->
    <linearGradient id="blue-glossy" x1="0%" y1="0%" x2="0%" y2="100%">
      <stop offset="0%" style="stop-color:#c9e6ff;stop-opacity:1" />
      <stop offset="100%" style="stop-color:#e2f0ff;stop-opacity:1" />
    </linearGradient>
    
    <linearGradient id="purple-glossy" x1="0%" y1="0%" x2="0%" y2="100%">
      <stop offset="0%" style="stop-color:#e8daef;stop-opacity:1" />
      <stop offset="100%" style="stop-color:#f5eef8;stop-opacity:1" />
    </linearGradient>
    
    <linearGradient id="orange-glossy" x1="0%" y1="0%" x2="0%" y2="100%">
      <stop offset="0%" style="stop-color:#fdebd0;stop-opacity:1" />
      <stop offset="100%" style="stop-color:#fff5e6;stop-opacity:1" />
    </linearGradient>
    
    <linearGradient id="green-glossy" x1="0%" y1="0%" x2="0%" y2="100%">
      <stop offset="0%" style="stop-color:#d1f5e0;stop-opacity:1" />
      <stop offset="100%" style="stop-color:#e6fff2;stop-opacity:1" />
    </linearGradient>
    
    <linearGradient id="red-glossy" x1="0%" y1="0%" x2="0%" y2="100%">
      <stop offset="0%" style="stop-color:#fadbd8;stop-opacity:1" />
      <stop offset="100%" style="stop-color:#ffe6e6;stop-opacity:1" />
    </linearGradient>
    
    <!-- Arrow markers -->
    <marker id="arrowhead" markerWidth="10" markerHeight="7" refX="9" refY="3.5" orient="auto">
      <polygon points="0 0, 10 3.5, 0 7" fill="#555" />
    </marker>
    
    <marker id="arrowhead-green" markerWidth="10" markerHeight="7" refX="9" refY="3.5" orient="auto">
      <polygon points="0 0, 10 3.5, 0 7" fill="#27ae60" />
    </marker>
    
    <marker id="arrowhead-red" markerWidth="10" markerHeight="7" refX="9" refY="3.5" orient="auto">
      <polygon points="0 0, 10 3.5, 0 7" fill="#e74c3c" />
    </marker>
    
    <marker id="arrowhead-purple" markerWidth="10" markerHeight="7" refX="9" refY="3.5" orient="auto">
      <polygon points="0 0, 10 3.5, 0 7" fill="#9b59b6" />
    </marker>
    
    <!-- Drop shadow filter -->
    <filter id="drop-shadow" x="-20%" y="-20%" width="140%" height="140%">
      <feDropShadow dx="2" dy="2" stdDeviation="3" flood-color="#00000033" />
    </filter>
  </defs>
  
  <!-- Main background -->
  <rect width="900" height="600" fill="url(#bg-gradient)" rx="10" ry="10"/>
  
  <!-- Title with shadow -->
  <text x="450" y="40" font-family="Arial" font-size="28" font-weight="bold" text-anchor="middle" fill="#2c3e50" filter="url(#drop-shadow)">eUTxO Transaction Flow</text>
  
  <!-- Transaction Box -->
  <rect x="50" y="70" width="800" height="500" fill="rgba(255,255,255,0.7)" stroke="#7f8c8d" stroke-width="2" rx="12" ry="12" filter="url(#drop-shadow)"/>
  
  <!-- Flow diagram sections -->
  
  <!-- INPUT SECTION -->
  <g transform="translate(0, 10)">
    <!-- Section Header -->
    <rect x="80" y="100" width="200" height="40" rx="8" ry="8" fill="#3498db" filter="url(#drop-shadow)"/>
    <text x="180" y="125" font-family="Arial" font-size="18" font-weight="bold" text-anchor="middle" fill="white">INPUTS</text>
    
    <!-- Regular UTxO -->
    <rect x="100" y="150" width="160" height="80" rx="10" ry="10" fill="white" stroke="#3498db" stroke-width="2" filter="url(#drop-shadow)"/>
    <rect x="100" y="150" width="160" height="25" rx="10" ry="10" fill="#3498db"/>
    <text x="180" y="168" font-family="Arial" font-size="14" font-weight="bold" text-anchor="middle" fill="white">Regular UTxO</text>
    <text x="110" y="195" font-family="Arial" font-size="12" text-anchor="start" fill="#555">Address: User1</text>
    <text x="110" y="215" font-family="Arial" font-size="12" text-anchor="start" fill="#555">Value: 100 ADA</text>
    
    <!-- Script UTxO -->
    <rect x="100" y="240" width="160" height="100" rx="10" ry="10" fill="white" stroke="#9b59b6" stroke-width="2" filter="url(#drop-shadow)"/>
    <rect x="100" y="240" width="160" height="25" rx="10" ry="10" fill="#9b59b6"/>
    <text x="180" y="258" font-family="Arial" font-size="14" font-weight="bold" text-anchor="middle" fill="white">Script UTxO</text>
    <text x="110" y="285" font-family="Arial" font-size="12" text-anchor="start" fill="#555">Address: Script</text>
    <text x="110" y="305" font-family="Arial" font-size="12" text-anchor="start" fill="#555">Value: 50 ADA</text>
    
    <!-- Datum highlight -->
    <rect x="110" y="315" width="140" height="20" rx="5" ry="5" fill="#f5eef8" stroke="#9b59b6" stroke-width="1"/>
    <text x="180" y="330" font-family="Arial" font-size="12" font-weight="bold" text-anchor="middle" fill="#9b59b6">Datum: {owner, deadline}</text>
  </g>
  
  <!-- MIDDLE VALIDATOR SECTION -->
  <g transform="translate(0, 0)">
    <!-- Redeemer input -->
    <rect x="130" y="380" width="120" height="40" rx="8" ry="8" fill="#f5eef8" stroke="#9b59b6" stroke-width="2" filter="url(#drop-shadow)"/>
    <text x="190" y="405" font-family="Arial" font-size="14" font-weight="bold" text-anchor="middle" fill="#9b59b6">Redeemer</text>
    
    <!-- Validation Box -->
    <rect x="320" y="170" width="260" height="260" rx="15" ry="15" fill="url(#orange-glossy)" stroke="#e67e22" stroke-width="3" filter="url(#drop-shadow)"/>
    <rect x="320" y="170" width="260" height="40" rx="15" ry="15" fill="#e67e22"/>
    <text x="450" y="195" font-family="Arial" font-size="18" font-weight="bold" text-anchor="middle" fill="white">VALIDATOR</text>
    
    <!-- Validator content -->
    <rect x="340" y="220" width="220" height="180" rx="10" ry="10" fill="white" stroke="#e67e22" stroke-width="1"/>
    
    <!-- Components inside validator -->
    <text x="370" y="240" font-family="Arial" font-size="14" font-weight="bold" text-anchor="start" fill="#e67e22">function spend(</text>
    
    <rect x="360" y="250" width="80" height="30" rx="5" ry="5" fill="#f5eef8" stroke="#9b59b6" stroke-width="1"/>
    <text x="400" y="270" font-family="Arial" font-size="12" font-weight="bold" text-anchor="middle" fill="#9b59b6">Datum</text>
    
    <text x="450" y="270" font-family="Arial" font-size="14" font-weight="bold" text-anchor="middle" fill="#e67e22">,</text>
    
    <rect x="460" y="250" width="80" height="30" rx="5" ry="5" fill="#f5eef8" stroke="#9b59b6" stroke-width="1"/>
    <text x="500" y="270" font-family="Arial" font-size="12" font-weight="bold" text-anchor="middle" fill="#9b59b6">Redeemer</text>
    
    <text x="550" y="270" font-family="Arial" font-size="14" font-weight="bold" text-anchor="middle" fill="#e67e22">,</text>
    
    <rect x="360" y="290" width="180" height="30" rx="5" ry="5" fill="#eaeded" stroke="#7f8c8d" stroke-width="1"/>
    <text x="450" y="310" font-family="Arial" font-size="12" font-weight="bold" text-anchor="middle" fill="#7f8c8d">Script Context</text>
    
    <text x="540" y="310" font-family="Arial" font-size="14" font-weight="bold" text-anchor="middle" fill="#e67e22">)</text>
    
    <text x="370" y="340" font-family="Arial" font-size="14" text-anchor="start" fill="#e67e22">// Validation Logic</text>
    <text x="370" y="360" font-family="Arial" font-size="14" text-anchor="start" fill="#e67e22">// Check signatures</text>
    <text x="370" y="380" font-family="Arial" font-size="14" text-anchor="start" fill="#e67e22">// Verify conditions</text>
    
    <!-- Result -->
    <rect x="400" y="410" width="100" height="40" rx="20" ry="20" fill="#f39c12" stroke="#e67e22" stroke-width="2"/>
    <text x="450" y="435" font-family="Arial" font-size="16" font-weight="bold" text-anchor="middle" fill="white">True/False</text>
  </g>
  
  <!-- OUTPUT SECTION -->
  <g transform="translate(0, 10)">
    <!-- Section Header -->
    <rect x="620" y="100" width="200" height="40" rx="8" ry="8" fill="#27ae60" filter="url(#drop-shadow)"/>
    <text x="720" y="125" font-family="Arial" font-size="18" font-weight="bold" text-anchor="middle" fill="white">OUTPUTS</text>
    
    <!-- Output 1 -->
    <rect x="640" y="150" width="160" height="80" rx="10" ry="10" fill="white" stroke="#27ae60" stroke-width="2" filter="url(#drop-shadow)"/>
    <rect x="640" y="150" width="160" height="25" rx="10" ry="10" fill="#27ae60"/>
    <text x="720" y="168" font-family="Arial" font-size="14" font-weight="bold" text-anchor="middle" fill="white">New UTxO 1</text>
    <text x="650" y="195" font-family="Arial" font-size="12" text-anchor="start" fill="#555">Address: User2</text>
    <text x="650" y="215" font-family="Arial" font-size="12" text-anchor="start" fill="#555">Value: 90 ADA</text>
    
    <!-- Output 2 -->
    <rect x="640" y="240" width="160" height="100" rx="10" ry="10" fill="white" stroke="#27ae60" stroke-width="2" filter="url(#drop-shadow)"/>
    <rect x="640" y="240" width="160" height="25" rx="10" ry="10" fill="#27ae60"/>
    <text x="720" y="258" font-family="Arial" font-size="14" font-weight="bold" text-anchor="middle" fill="white">New UTxO 2</text>
    <text x="650" y="285" font-family="Arial" font-size="12" text-anchor="start" fill="#555">Address: Script</text>
    <text x="650" y="305" font-family="Arial" font-size="12" text-anchor="start" fill="#555">Value: 55 ADA</text>
    
    <!-- New Datum highlight -->
    <rect x="650" y="315" width="140" height="20" rx="5" ry="5" fill="#d5f5e3" stroke="#27ae60" stroke-width="1"/>
    <text x="720" y="330" font-family="Arial" font-size="12" font-weight="bold" text-anchor="middle" fill="#27ae60">New Datum: {owner, deadline}</text>
    
    <!-- Fee Box -->
    <rect x="640" y="350" width="160" height="50" rx="10" ry="10" fill="white" stroke="#e74c3c" stroke-width="2" filter="url(#drop-shadow)"/>
    <rect x="640" y="350" width="160" height="25" rx="10" ry="10" fill="#e74c3c"/>
    <text x="720" y="368" font-family="Arial" font-size="14" font-weight="bold" text-anchor="middle" fill="white">Fee</text>
    <text x="720" y="390" font-family="Arial" font-size="14" font-weight="bold" text-anchor="middle" fill="#e74c3c">5 ADA</text>
    
    <!-- Failed Transaction -->
    <rect x="640" y="420" width="160" height="60" rx="10" ry="10" fill="url(#red-glossy)" stroke="#e74c3c" stroke-width="2" filter="url(#drop-shadow)"/>
    <text x="720" y="455" font-family="Arial" font-size="16" font-weight="bold" text-anchor="middle" fill="#e74c3c">Transaction Failed</text>
  </g>
  
  <!-- CONNECTING ARROWS -->
  <!-- Input to validator -->
  <path d="M 180 190 C 220 190, 250 200, 320 200" stroke="#3498db" stroke-width="2" fill="none" marker-end="url(#arrowhead)"/>
  <path d="M 180 290 C 220 290, 250 250, 320 250" stroke="#9b59b6" stroke-width="2" fill="none" marker-end="url(#arrowhead-purple)"/>
  
  <!-- Redeemer to validator -->
  <path d="M 250 400 C 280 400, 300 330, 320 330" stroke="#9b59b6" stroke-width="2" fill="none" marker-end="url(#arrowhead-purple)"/>
  
  <!-- Validator to outputs -->
  <!-- Success path -->
  <path d="M 580 270 C 600 270, 610 270, 640 270" stroke="#27ae60" stroke-width="2" fill="none" marker-end="url(#arrowhead-green)" stroke-dasharray="5,2"/>
  <text x="610" y="260" font-family="Arial" font-size="14" font-weight="bold" text-anchor="middle" fill="#27ae60">Valid</text>
  
  <!-- Failure path -->
  <path d="M 500 450 C 530 450, 560 450, 640 450" stroke="#e74c3c" stroke-width="2" fill="none" marker-end="url(#arrowhead-red)" stroke-dasharray="5,2"/>
  <text x="580" y="470" font-family="Arial" font-size="14" font-weight="bold" text-anchor="middle" fill="#e74c3c">Invalid</text>
  
  <!-- KEY COMPONENTS LABELS -->
  <g transform="translate(0, 0)">
    <!-- Information Box -->
    <rect x="100" y="460" width="320" height="100" rx="10" ry="10" fill="rgba(255,255,255,0.8)" stroke="#7f8c8d" stroke-width="1"/>
    <text x="110" y="480" font-family="Arial" font-size="14" font-weight="bold" text-anchor="start" fill="#2c3e50">Key Components:</text>
    
    <!-- Datum explanation -->
    <circle cx="120" cy="500" r="6" fill="#9b59b6"/>
    <text x="135" y="505" font-family="Arial" font-size="12" text-anchor="start" fill="#2c3e50">Datum: On-chain data stored with script UTxO</text>
    
    <!-- Redeemer explanation -->
    <circle cx="120" cy="525" r="6" fill="#9b59b6"/>
    <text x="135" y="530" font-family="Arial" font-size="12" text-anchor="start" fill="#2c3e50">Redeemer: Transaction-specific input for script</text>
    
    <!-- Script Context explanation -->
    <circle cx="120" cy="550" r="6" fill="#7f8c8d"/>
    <text x="135" y="555" font-family="Arial" font-size="12" text-anchor="start" fill="#2c3e50">Script Context: Complete transaction information</text>
    
    <!-- Rules Box -->
    <rect x="460" y="480" width="340" height="80" rx="10" ry="10" fill="rgba(255,255,255,0.8)" stroke="#7f8c8d" stroke-width="1"/>
    <text x="480" y="500" font-family="Arial" font-size="14" font-weight="bold" text-anchor="start" fill="#2c3e50">eUTxO Rules:</text>
    <text x="480" y="525" font-family="Arial" font-size="12" text-anchor="start" fill="#2c3e50">• All inputs must be consumed entirely</text>
    <text x="480" y="550" font-family="Arial" font-size="12" text-anchor="start" fill="#2c3e50">• Sum(Inputs) = Sum(Outputs) + Fee</text>
  </g>
</svg>
