<?xml version="1.0" encoding="UTF-8"?>
<svg viewBox="0 0 840 520" xmlns="http://www.w3.org/2000/svg">
  <!-- Background with subtle grid -->
  <defs>
    <pattern id="smallGrid" width="10" height="10" patternUnits="userSpaceOnUse">
      <path d="M 10 0 L 0 0 0 10" fill="none" stroke="#f0f0f0" stroke-width="0.5"/>
    </pattern>
    <pattern id="grid" width="100" height="100" patternUnits="userSpaceOnUse">
      <rect width="100" height="100" fill="url(#smallGrid)"/>
      <path d="M 100 0 L 0 0 0 100" fill="none" stroke="#e0e0e0" stroke-width="1"/>
    </pattern>
  </defs>
  <rect width="840" height="520" fill="white"/>
  <rect width="840" height="520" fill="url(#grid)" opacity="0.6"/>

  <!-- Title & Subtitle -->
  <rect x="0" y="0" width="840" height="60" fill="#0033AD" opacity="0.9"/>
  <text x="420" y="35" font-family="Arial, sans-serif" font-size="24" font-weight="bold" text-anchor="middle" fill="white">Cardano's Extended UTxO Model</text>
  <text x="420" y="75" font-family="Arial, sans-serif" font-size="16" text-anchor="middle" fill="#555">Transaction Flow with Script Validation</text>

  <!-- The UTXO before transaction -->
  <g transform="translate(20, 120)">
    <rect x="0" y="0" width="220" height="30" fill="#0033AD" rx="4" ry="4"/>
    <text x="110" y="20" font-family="Arial, sans-serif" font-size="14" font-weight="bold" text-anchor="middle" fill="white">BEFORE TRANSACTION</text>
    
    <!-- Alice's starting UTXOs -->
    <g transform="translate(0, 40)">
      <rect width="220" height="110" fill="#E5F1FF" stroke="#0033AD" stroke-width="2" rx="5" ry="5"/>
      <text x="110" y="25" font-family="Arial, sans-serif" font-size="15" font-weight="bold" text-anchor="middle">Alice's Wallet UTxO</text>
      <line x1="0" y1="35" x2="220" y2="35" stroke="#0033AD" stroke-width="1" stroke-dasharray="2,2"/>
      <text x="20" y="55" font-family="Arial, sans-serif" font-size="13">Address: addr1vx8...</text>
      <text x="20" y="75" font-family="Arial, sans-serif" font-size="13">Value: 100 ₳</text>
      <text x="20" y="95" font-family="Arial, sans-serif" font-size="13">Datum: None</text>
      
      <!-- UTxO ID -->
      <rect x="0" y="-10" width="40" height="20" fill="#0033AD" rx="10" ry="10"/>
      <text x="20" y="5" font-family="Arial, sans-serif" font-size="12" font-weight="bold" text-anchor="middle" fill="white">#1</text>
    </g>
    
    <!-- Script UTxO -->
    <g transform="translate(0, 160)">
      <rect width="220" height="140" fill="#FFEFE6" stroke="#FF5003" stroke-width="2" rx="5" ry="5"/>
      <text x="110" y="25" font-family="Arial, sans-serif" font-size="15" font-weight="bold" text-anchor="middle">Script-Controlled UTxO</text>
      <line x1="0" y1="35" x2="220" y2="35" stroke="#FF5003" stroke-width="1" stroke-dasharray="2,2"/>
      <text x="20" y="55" font-family="Arial, sans-serif" font-size="13">Address: script1...</text>
      <text x="20" y="75" font-family="Arial, sans-serif" font-size="13">Value: 50 ₳ + NFT #123</text>
      <text x="20" y="95" font-family="Arial, sans-serif" font-size="13">Datum: {</text>
      <text x="40" y="115" font-family="Arial, sans-serif" font-size="13">owner: Alice_pkh,</text>
      <text x="40" y="135" font-family="Arial, sans-serif" font-size="13">locked_until: slot_12345</text>
      <text x="20" y="155" font-family="Arial, sans-serif" font-size="13">}</text>
      
      <!-- UTxO ID -->
      <rect x="0" y="-10" width="40" height="20" fill="#FF5003" rx="10" ry="10"/>
      <text x="20" y="5" font-family="Arial, sans-serif" font-size="12" font-weight="bold" text-anchor="middle" fill="white">#2</text>
    </g>
  </g>

  <!-- Transaction Process in the middle -->
  <g transform="translate(270, 120)">
    <rect x="0" y="0" width="300" height="30" fill="#0033AD" rx="4" ry="4"/>
    <text x="150" y="20" font-family="Arial, sans-serif" font-size="14" font-weight="bold" text-anchor="middle" fill="white">TRANSACTION PROCESSING</text>
    
    <!-- Transaction Build -->
    <g transform="translate(0, 40)">
      <rect width="300" height="260" fill="#F5F5F5" stroke="#333" stroke-width="2" rx="5" ry="5"/>
      <text x="150" y="25" font-family="Arial, sans-serif" font-size="15" font-weight="bold" text-anchor="middle">Transaction</text>
      <line x1="0" y1="35" x2="300" y2="35" stroke="#333" stroke-width="1"/>
      
      <!-- Transaction Sections -->
      <g transform="translate(20, 45)">
        <!-- Inputs Section -->
        <rect width="260" height="60" fill="#E5F1FF" stroke="#0033AD" stroke-width="1" rx="3" ry="3"/>
        <text x="15" y="20" font-family="Arial, sans-serif" font-size="13" font-weight="bold">Inputs:</text>
        <text x="30" y="40" font-family="Arial, sans-serif" font-size="12">- UTxO #1 (Alice's Wallet)</text>
        <text x="30" y="55" font-family="Arial, sans-serif" font-size="12">- UTxO #2 (Script Address)</text>
        
        <!-- Redeemers Section -->
        <g transform="translate(0, 70)">
          <rect width="260" height="75" fill="#FFEFE6" stroke="#FF5003" stroke-width="1" rx="3" ry="3"/>
          <text x="15" y="20" font-family="Arial, sans-serif" font-size="13" font-weight="bold">Redeemer (for UTxO #2):</text>
          <text x="30" y="40" font-family="Arial, sans-serif" font-size="12">{</text>
          <text x="40" y="55" font-family="Arial, sans-serif" font-size="12">action: "withdraw",</text>
          <text x="40" y="70" font-family="Arial, sans-serif" font-size="12">recipient: Bob_pkh</text>
          <text x="30" y="85" font-family="Arial, sans-serif" font-size="12">}</text>
        </g>
        
        <!-- Context Section -->
        <g transform="translate(0, 155)">
          <rect width="260" height="45" fill="#E6F7FF" stroke="#1890FF" stroke-width="1" rx="3" ry="3"/>
          <text x="15" y="20" font-family="Arial, sans-serif" font-size="13" font-weight="bold">Context:</text>
          <text x="30" y="40" font-family="Arial, sans-serif" font-size="12">- Tx Validity: [slot_12400, slot_12500]</text>
        </g>
      </g>
    </g>
    
    <!-- Validator Logic -->
    <g transform="translate(40, 310)">
      <rect width="220" height="90" fill="#FFEFE6" stroke="#FF5003" stroke-width="2" rx="5" ry="5"/>
      <text x="110" y="25" font-family="Arial, sans-serif" font-size="14" font-weight="bold" text-anchor="middle">Script Validation</text>
      <line x1="0" y1="35" x2="220" y2="35" stroke="#FF5003" stroke-width="1" stroke-dasharray="2,2"/>
      <text x="20" y="55" font-family="Arial, sans-serif" font-size="12">1. Verify current slot > locked_until</text>
      <text x="20" y="75" font-family="Arial, sans-serif" font-size="12">2. Verify tx is signed by owner</text>
      <text x="110" y="95" font-family="Arial, sans-serif" font-size="13" font-weight="bold" text-anchor="middle" fill="#008800">VALID ✓</text>
    </g>

    <!-- Arrows connecting the process -->
    <line x1="-75" y1="90" x2="0" y2="90" stroke="#333" stroke-width="1.5" marker-end="url(#arrowhead)"/>
    <line x1="-75" y1="230" x2="0" y2="230" stroke="#333" stroke-width="1.5" marker-end="url(#arrowhead)"/>
    <line x1="150" y1="300" x2="150" y2="310" stroke="#FF5003" stroke-width="1.5" marker-end="url(#arrowhead)"/>
    <line x1="150" y1="400" x2="150" y2="435" stroke="#008800" stroke-width="1.5" marker-end="url(#arrowhead)"/>
  </g>

  <!-- The UTXO after transaction -->
  <g transform="translate(600, 120)">
    <rect x="0" y="0" width="220" height="30" fill="#0033AD" rx="4" ry="4"/>
    <text x="110" y="20" font-family="Arial, sans-serif" font-size="14" font-weight="bold" text-anchor="middle" fill="white">AFTER TRANSACTION</text>
    
    <!-- Bob's UTxO -->
    <g transform="translate(0, 40)">
      <rect width="220" height="110" fill="#E6F7FE" stroke="#1677FF" stroke-width="2" rx="5" ry="5"/>
      <text x="110" y="25" font-family="Arial, sans-serif" font-size="15" font-weight="bold" text-anchor="middle">Bob's Wallet UTxO</text>
      <line x1="0" y1="35" x2="220" y2="35" stroke="#1677FF" stroke-width="1" stroke-dasharray="2,2"/>
      <text x="20" y="55" font-family="Arial, sans-serif" font-size="13">Address: addr1qx7...</text>
      <text x="20" y="75" font-family="Arial, sans-serif" font-size="13">Value: 30 ₳ + NFT #123</text>
      <text x="20" y="95" font-family="Arial, sans-serif" font-size="13">Datum: None</text>
      
      <!-- UTxO ID -->
      <rect x="0" y="-10" width="40" height="20" fill="#1677FF" rx="10" ry="10"/>
      <text x="20" y="5" font-family="Arial, sans-serif" font-size="12" font-weight="bold" text-anchor="middle" fill="white">#3</text>
    </g>
    
    <!-- Alice's change UTxO -->
    <g transform="translate(0, 160)">
      <rect width="220" height="110" fill="#E5F1FF" stroke="#0033AD" stroke-width="2" rx="5" ry="5"/>
      <text x="110" y="25" font-family="Arial, sans-serif" font-size="15" font-weight="bold" text-anchor="middle">Alice's Change UTxO</text>
      <line x1="0" y1="35" x2="220" y2="35" stroke="#0033AD" stroke-width="1" stroke-dasharray="2,2"/>
      <text x="20" y="55" font-family="Arial, sans-serif" font-size="13">Address: addr1vx8...</text>
      <text x="20" y="75" font-family="Arial, sans-serif" font-size="13">Value: 117 ₳</text>
      <text x="20" y="95" font-family="Arial, sans-serif" font-size="13">Datum: None</text>
      
      <!-- UTxO ID -->
      <rect x="0" y="-10" width="40" height="20" fill="#0033AD" rx="10" ry="10"/>
      <text x="20" y="5" font-family="Arial, sans-serif" font-size="12" font-weight="bold" text-anchor="middle" fill="white">#4</text>
    </g>
    
    <!-- Fee -->
    <g transform="translate(0, 280)">
      <rect width="220" height="80" fill="#FFF0F6" stroke="#EB2F96" stroke-width="2" rx="5" ry="5"/>
      <text x="110" y="25" font-family="Arial, sans-serif" font-size="15" font-weight="bold" text-anchor="middle">Transaction Fee</text>
      <line x1="0" y1="35" x2="220" y2="35" stroke="#EB2F96" stroke-width="1" stroke-dasharray="2,2"/>
      <text x="20" y="55" font-family="Arial, sans-serif" font-size="13">Value: 3 ₳</text>
      <text x="20" y="75" font-family="Arial, sans-serif" font-size="13">(Consumed by stake pools)</text>
    </g>

    <!-- Arrows connecting to results -->
    <line x1="-30" y1="90" x2="0" y2="90" stroke="#008800" stroke-width="1.5" marker-end="url(#arrowhead)"/>
    <line x1="-30" y1="210" x2="0" y2="210" stroke="#008800" stroke-width="1.5" marker-end="url(#arrowhead)"/>
    <line x1="-30" y1="320" x2="0" y2="320" stroke="#008800" stroke-width="1.5" marker-end="url(#arrowhead)"/>
  </g>



  <!-- Key differentiators from account model -->
  <g transform="translate(20, 430)">
    <rect width="280" height="50" rx="5" ry="5" fill="#E6FFFB" stroke="#13C2C2" stroke-width="1"/>
    <text x="150" y="20" font-family="Arial, sans-serif" font-size="14" font-weight="bold" text-anchor="middle">eUTxO vs. Account Model</text>
    <text x="150" y="38" font-family="Arial, sans-serif" font-size="12" text-anchor="middle">Deterministic Execution + Better Parallelization</text>
  </g>

  <!-- Arrowhead Marker -->
  <defs>
    <marker id="arrowhead" markerWidth="10" markerHeight="7" refX="9" refY="3.5" orient="auto">
      <polygon points="0 0, 10 3.5, 0 7" fill="#333"/>
    </marker>
  </defs>
</svg>